<mxfile host="Electron" modified="2024-04-01T05:33:58.135Z" agent="Mozilla/5.0 (Windows NT 10.0; Win64; x64) AppleWebKit/537.36 (KHTML, like Gecko) draw.io/23.1.5 Chrome/120.0.6099.109 Electron/28.1.0 Safari/537.36" etag="eNXaJChz2KIJp8_wboT2" version="23.1.5" type="device">
  <diagram name="Страница — 1" id="tbxCxjZrnoyPC-O-cirb">
    <mxGraphModel dx="2261" dy="884" grid="1" gridSize="10" guides="1" tooltips="1" connect="1" arrows="1" fold="1" page="1" pageScale="1" pageWidth="827" pageHeight="1169" math="0" shadow="0">
      <root>
        <mxCell id="0" />
        <mxCell id="1" parent="0" />
        <mxCell id="5lNIr5Ab933WR5Dw7jMN-67" value="Потребитель" style="whiteSpace=wrap;html=1;align=center;gradientColor=none;" vertex="1" parent="1">
          <mxGeometry x="40" y="450" width="100" height="40" as="geometry" />
        </mxCell>
        <mxCell id="5lNIr5Ab933WR5Dw7jMN-68" style="edgeStyle=orthogonalEdgeStyle;rounded=0;orthogonalLoop=1;jettySize=auto;html=1;entryX=0;entryY=0.5;entryDx=0;entryDy=0;endArrow=none;endFill=0;" edge="1" parent="1" source="5lNIr5Ab933WR5Dw7jMN-74" target="5lNIr5Ab933WR5Dw7jMN-70">
          <mxGeometry relative="1" as="geometry" />
        </mxCell>
        <mxCell id="5lNIr5Ab933WR5Dw7jMN-69" value="Является" style="shape=rhombus;perimeter=rhombusPerimeter;whiteSpace=wrap;html=1;align=center;" vertex="1" parent="1">
          <mxGeometry x="240" y="440" width="120" height="60" as="geometry" />
        </mxCell>
        <mxCell id="5lNIr5Ab933WR5Dw7jMN-70" value="Физ. лицо" style="whiteSpace=wrap;html=1;align=center;" vertex="1" parent="1">
          <mxGeometry x="460" y="450" width="100" height="40" as="geometry" />
        </mxCell>
        <mxCell id="5lNIr5Ab933WR5Dw7jMN-71" value="" style="endArrow=none;html=1;rounded=0;entryX=0;entryY=0.5;entryDx=0;entryDy=0;exitX=1;exitY=0.5;exitDx=0;exitDy=0;startArrow=none;startFill=0;endFill=0;" edge="1" parent="1" source="5lNIr5Ab933WR5Dw7jMN-77" target="5lNIr5Ab933WR5Dw7jMN-69">
          <mxGeometry relative="1" as="geometry">
            <mxPoint x="40" y="470" as="sourcePoint" />
            <mxPoint x="200" y="470" as="targetPoint" />
          </mxGeometry>
        </mxCell>
        <mxCell id="5lNIr5Ab933WR5Dw7jMN-72" value="" style="edgeStyle=orthogonalEdgeStyle;rounded=0;orthogonalLoop=1;jettySize=auto;html=1;entryX=0;entryY=0.5;entryDx=0;entryDy=0;endArrow=none;endFill=0;" edge="1" parent="1" source="5lNIr5Ab933WR5Dw7jMN-69" target="5lNIr5Ab933WR5Dw7jMN-74">
          <mxGeometry relative="1" as="geometry">
            <mxPoint x="360" y="470" as="sourcePoint" />
            <mxPoint x="460" y="470" as="targetPoint" />
          </mxGeometry>
        </mxCell>
        <mxCell id="5lNIr5Ab933WR5Dw7jMN-73" value="1" style="edgeLabel;html=1;align=center;verticalAlign=middle;resizable=0;points=[];" vertex="1" connectable="0" parent="5lNIr5Ab933WR5Dw7jMN-72">
          <mxGeometry x="-0.0857" relative="1" as="geometry">
            <mxPoint x="-17" y="-10" as="offset" />
          </mxGeometry>
        </mxCell>
        <mxCell id="5lNIr5Ab933WR5Dw7jMN-74" value="" style="ellipse;whiteSpace=wrap;html=1;aspect=fixed;fillColor=#000000;" vertex="1" parent="1">
          <mxGeometry x="420" y="455" width="30" height="30" as="geometry" />
        </mxCell>
        <mxCell id="5lNIr5Ab933WR5Dw7jMN-75" value="" style="endArrow=none;html=1;rounded=0;entryX=0;entryY=0.5;entryDx=0;entryDy=0;exitX=1;exitY=0.5;exitDx=0;exitDy=0;startArrow=none;startFill=0;endFill=0;" edge="1" parent="1" source="5lNIr5Ab933WR5Dw7jMN-67" target="5lNIr5Ab933WR5Dw7jMN-77">
          <mxGeometry relative="1" as="geometry">
            <mxPoint x="140" y="470" as="sourcePoint" />
            <mxPoint x="240" y="470" as="targetPoint" />
          </mxGeometry>
        </mxCell>
        <mxCell id="5lNIr5Ab933WR5Dw7jMN-76" value="1" style="edgeLabel;html=1;align=center;verticalAlign=middle;resizable=0;points=[];" vertex="1" connectable="0" parent="5lNIr5Ab933WR5Dw7jMN-75">
          <mxGeometry x="-0.0286" relative="1" as="geometry">
            <mxPoint x="85" y="-10" as="offset" />
          </mxGeometry>
        </mxCell>
        <mxCell id="5lNIr5Ab933WR5Dw7jMN-77" value="" style="ellipse;whiteSpace=wrap;html=1;aspect=fixed;fillColor=#000000;" vertex="1" parent="1">
          <mxGeometry x="150" y="455" width="30" height="30" as="geometry" />
        </mxCell>
        <mxCell id="5lNIr5Ab933WR5Dw7jMN-78" style="rounded=0;orthogonalLoop=1;jettySize=auto;html=1;entryX=0;entryY=0.5;entryDx=0;entryDy=0;endArrow=none;endFill=0;exitX=1;exitY=0.5;exitDx=0;exitDy=0;" edge="1" parent="1" source="5lNIr5Ab933WR5Dw7jMN-79" target="5lNIr5Ab933WR5Dw7jMN-86">
          <mxGeometry relative="1" as="geometry" />
        </mxCell>
        <mxCell id="5lNIr5Ab933WR5Dw7jMN-79" value="" style="ellipse;whiteSpace=wrap;html=1;aspect=fixed;fillColor=#000000;" vertex="1" parent="1">
          <mxGeometry x="150" y="390" width="30" height="30" as="geometry" />
        </mxCell>
        <mxCell id="5lNIr5Ab933WR5Dw7jMN-80" value="" style="ellipse;whiteSpace=wrap;html=1;aspect=fixed;fillColor=#000000;" vertex="1" parent="1">
          <mxGeometry x="150" y="330" width="30" height="30" as="geometry" />
        </mxCell>
        <mxCell id="5lNIr5Ab933WR5Dw7jMN-81" value="" style="ellipse;whiteSpace=wrap;html=1;aspect=fixed;fillColor=#000000;" vertex="1" parent="1">
          <mxGeometry x="150" y="270" width="30" height="30" as="geometry" />
        </mxCell>
        <mxCell id="5lNIr5Ab933WR5Dw7jMN-82" style="rounded=0;orthogonalLoop=1;jettySize=auto;html=1;entryX=0;entryY=0.5;entryDx=0;entryDy=0;endArrow=none;endFill=0;" edge="1" parent="1" source="5lNIr5Ab933WR5Dw7jMN-84" target="5lNIr5Ab933WR5Dw7jMN-89">
          <mxGeometry relative="1" as="geometry" />
        </mxCell>
        <mxCell id="5lNIr5Ab933WR5Dw7jMN-84" value="" style="ellipse;whiteSpace=wrap;html=1;aspect=fixed;fillColor=#000000;" vertex="1" parent="1">
          <mxGeometry x="150" y="210" width="30" height="30" as="geometry" />
        </mxCell>
        <mxCell id="5lNIr5Ab933WR5Dw7jMN-86" value="" style="ellipse;whiteSpace=wrap;html=1;aspect=fixed;fillColor=#000000;" vertex="1" parent="1">
          <mxGeometry x="420" y="330" width="30" height="30" as="geometry" />
        </mxCell>
        <mxCell id="5lNIr5Ab933WR5Dw7jMN-87" style="rounded=0;orthogonalLoop=1;jettySize=auto;html=1;entryX=1;entryY=0.5;entryDx=0;entryDy=0;endArrow=none;endFill=0;exitX=0;exitY=0.5;exitDx=0;exitDy=0;" edge="1" parent="1" source="5lNIr5Ab933WR5Dw7jMN-88" target="5lNIr5Ab933WR5Dw7jMN-80">
          <mxGeometry relative="1" as="geometry" />
        </mxCell>
        <mxCell id="5lNIr5Ab933WR5Dw7jMN-88" value="" style="ellipse;whiteSpace=wrap;html=1;aspect=fixed;fillColor=#000000;" vertex="1" parent="1">
          <mxGeometry x="420" y="270" width="30" height="30" as="geometry" />
        </mxCell>
        <mxCell id="5lNIr5Ab933WR5Dw7jMN-89" value="" style="ellipse;whiteSpace=wrap;html=1;aspect=fixed;fillColor=#000000;" vertex="1" parent="1">
          <mxGeometry x="420" y="210" width="30" height="30" as="geometry" />
        </mxCell>
        <mxCell id="5lNIr5Ab933WR5Dw7jMN-90" value="&lt;font style=&quot;font-size: 14px;&quot;&gt;Потребитель&lt;/font&gt;" style="text;html=1;align=center;verticalAlign=middle;resizable=0;points=[];autosize=1;strokeColor=none;fillColor=none;" vertex="1" parent="1">
          <mxGeometry x="20" y="150" width="110" height="30" as="geometry" />
        </mxCell>
        <mxCell id="5lNIr5Ab933WR5Dw7jMN-91" value="&lt;font style=&quot;font-size: 14px;&quot;&gt;Является&lt;/font&gt;" style="text;html=1;align=center;verticalAlign=middle;resizable=0;points=[];autosize=1;strokeColor=none;fillColor=none;" vertex="1" parent="1">
          <mxGeometry x="260" y="150" width="80" height="30" as="geometry" />
        </mxCell>
        <mxCell id="5lNIr5Ab933WR5Dw7jMN-92" value="&lt;font style=&quot;font-size: 14px;&quot;&gt;Физ. лицо&lt;/font&gt;" style="text;html=1;align=center;verticalAlign=middle;resizable=0;points=[];autosize=1;strokeColor=none;fillColor=none;" vertex="1" parent="1">
          <mxGeometry x="465" y="150" width="90" height="30" as="geometry" />
        </mxCell>
        <mxCell id="5lNIr5Ab933WR5Dw7jMN-93" value="&lt;font style=&quot;font-size: 14px;&quot;&gt;Донец Н.О.&lt;/font&gt;" style="text;html=1;align=right;verticalAlign=middle;resizable=0;points=[];autosize=1;strokeColor=none;fillColor=none;" vertex="1" parent="1">
          <mxGeometry x="30" y="210" width="100" height="30" as="geometry" />
        </mxCell>
        <mxCell id="5lNIr5Ab933WR5Dw7jMN-94" value="&lt;span style=&quot;font-size: 14px;&quot;&gt;ЗАО &quot;Вишнёвый сад&quot;&lt;/span&gt;" style="text;html=1;align=right;verticalAlign=middle;resizable=0;points=[];autosize=1;strokeColor=none;fillColor=none;" vertex="1" parent="1">
          <mxGeometry x="-30" y="270" width="160" height="30" as="geometry" />
        </mxCell>
        <mxCell id="5lNIr5Ab933WR5Dw7jMN-95" value="&lt;font style=&quot;font-size: 14px;&quot;&gt;Борхес Х.Л.&lt;/font&gt;" style="text;html=1;align=right;verticalAlign=middle;resizable=0;points=[];autosize=1;strokeColor=none;fillColor=none;" vertex="1" parent="1">
          <mxGeometry x="30" y="330" width="100" height="30" as="geometry" />
        </mxCell>
        <mxCell id="5lNIr5Ab933WR5Dw7jMN-96" value="&lt;font style=&quot;font-size: 14px;&quot;&gt;Пушкин А.С.&lt;/font&gt;" style="text;html=1;align=right;verticalAlign=middle;resizable=0;points=[];autosize=1;strokeColor=none;fillColor=none;" vertex="1" parent="1">
          <mxGeometry x="30" y="390" width="100" height="30" as="geometry" />
        </mxCell>
        <mxCell id="5lNIr5Ab933WR5Dw7jMN-97" value="&lt;font style=&quot;font-size: 14px;&quot;&gt;Физ. лицо №1&lt;/font&gt;" style="text;html=1;align=left;verticalAlign=middle;resizable=0;points=[];autosize=1;strokeColor=none;fillColor=none;" vertex="1" parent="1">
          <mxGeometry x="470" y="210" width="110" height="30" as="geometry" />
        </mxCell>
        <mxCell id="5lNIr5Ab933WR5Dw7jMN-98" value="&lt;font style=&quot;font-size: 14px;&quot;&gt;Физ. лицо №2&lt;/font&gt;" style="text;html=1;align=left;verticalAlign=middle;resizable=0;points=[];autosize=1;strokeColor=none;fillColor=none;" vertex="1" parent="1">
          <mxGeometry x="470" y="270" width="110" height="30" as="geometry" />
        </mxCell>
        <mxCell id="5lNIr5Ab933WR5Dw7jMN-99" value="&lt;font style=&quot;font-size: 14px;&quot;&gt;Физ. лицо №3&lt;/font&gt;" style="text;html=1;align=left;verticalAlign=middle;resizable=0;points=[];autosize=1;strokeColor=none;fillColor=none;" vertex="1" parent="1">
          <mxGeometry x="470" y="330" width="110" height="30" as="geometry" />
        </mxCell>
        <mxCell id="5lNIr5Ab933WR5Dw7jMN-101" value="&lt;span style=&quot;font-size: 14px;&quot;&gt;R4&lt;/span&gt;" style="text;html=1;align=center;verticalAlign=middle;resizable=0;points=[];autosize=1;strokeColor=none;fillColor=none;" vertex="1" parent="1">
          <mxGeometry x="280" y="410" width="40" height="30" as="geometry" />
        </mxCell>
        <mxCell id="5lNIr5Ab933WR5Dw7jMN-102" value="" style="rounded=0;whiteSpace=wrap;html=1;fillColor=none;" vertex="1" parent="1">
          <mxGeometry x="410" y="450" width="50" height="40" as="geometry" />
        </mxCell>
      </root>
    </mxGraphModel>
  </diagram>
</mxfile>
